<svg width="25" height="27" viewBox="0 0 25 27" fill="none" xmlns="http://www.w3.org/2000/svg">
<path d="M2.85319 26.5903C1.8228 26.3005 1.16593 25.6758 0.934099 24.7678C0.734462 23.995 1.04358 23.1965 1.81636 22.4688C2.55051 21.7733 3.69037 21.3096 5.31322 21.052C6.07957 20.9296 7.95358 20.9103 8.57181 21.0198C9.03548 21.1035 9.93062 21.316 10.1753 21.4062C10.6455 21.5736 11.9463 22.0888 12.3778 22.282L12.8801 22.5074L13.4082 22.2756C14.7734 21.6702 15.9326 21.2774 16.8921 21.0777C17.4717 20.9618 17.7164 20.9489 18.9658 20.9683C20.2344 20.994 20.4663 21.0133 21.1553 21.1743C22.804 21.5607 23.7442 22.063 24.3817 22.9196C25.0772 23.8405 25.0322 24.9481 24.2787 25.8046C23.9889 26.1331 23.3063 26.513 22.8104 26.616C21.4387 26.9058 18.9593 26.3134 15.4947 24.8708C14.8893 24.6197 14.2003 24.3363 13.9684 24.2397C13.7366 24.1367 13.4532 24.0143 13.3438 23.9564C13.0218 23.7889 12.732 23.834 11.9914 24.1496C11.3603 24.42 10.903 24.6132 9.82115 25.0576C8.08882 25.766 6.4724 26.2812 5.21663 26.5323C4.48892 26.6804 3.26534 26.7062 2.85319 26.5903ZM5.3261 25.3345C6.62052 24.9868 7.70886 24.6454 8.17897 24.4458C8.26913 24.4072 8.62977 24.2655 8.98396 24.1367C9.52491 23.9371 10.0272 23.7374 11.1349 23.2673C11.2572 23.2158 11.2701 23.19 11.2057 23.1127C11.0318 22.9002 10.0079 22.5267 8.88736 22.2691C8.23049 22.1146 8.01154 22.0952 7.01979 22.0952C6.04093 22.0952 5.78978 22.121 5.08783 22.2691C3.79341 22.546 3.10434 22.8358 2.56339 23.3253C2.09328 23.7503 1.93872 24.3106 2.16412 24.7871C2.3058 25.0834 2.80167 25.3925 3.28466 25.4891C3.63241 25.5535 4.83023 25.4633 5.3261 25.3345ZM22.9585 25.3474C23.5124 25.0512 23.712 24.7742 23.712 24.3106C23.7055 23.9306 23.5832 23.6666 23.2483 23.3381C22.7396 22.8423 22.0312 22.5396 20.7303 22.2756C19.9833 22.121 19.7128 22.1017 18.7082 22.0952C17.6714 22.0952 17.4782 22.1146 16.8406 22.2691C16.4542 22.3657 15.9584 22.501 15.7458 22.5718C15.25 22.7392 14.4901 23.087 14.4901 23.1449C14.4901 23.2029 16.4414 24.0465 17.1948 24.317C18.5665 24.8 20.5307 25.4053 21.0266 25.4826C21.136 25.5019 21.5546 25.5084 21.9603 25.5019C22.5786 25.4891 22.746 25.4633 22.9585 25.3474Z" fill="#45A173"/>
<path d="M9.6859 17.4586C6.55611 14.3352 6.63339 14.4318 6.85235 14.0132C6.99403 13.7492 12.5001 8.28817 12.7062 8.21089C12.9187 8.12718 13.1441 8.20445 13.421 8.45561C13.5305 8.55221 14.8314 9.85307 16.3125 11.3342C18.9336 13.9746 18.998 14.0454 18.998 14.2902C18.998 14.5413 18.9336 14.6057 16.1837 17.3684C14.6317 18.9204 13.2858 20.2342 13.1892 20.2857C13.0926 20.3372 12.9252 20.3758 12.8092 20.3758C12.6289 20.3758 12.3069 20.0732 9.6859 17.4586ZM15.2628 16.6085C16.5057 15.3721 17.5168 14.3223 17.5168 14.2837C17.5168 14.2386 16.4864 13.176 15.2242 11.9138C13.3502 10.0334 12.9187 9.63411 12.8286 9.67919C12.5967 9.80799 8.24336 14.1936 8.24336 14.2966C8.24336 14.4511 12.7577 18.8947 12.8994 18.8754C12.9574 18.8689 14.0264 17.8514 15.2628 16.6085Z" fill="#45A173"/>
<path d="M12.4165 6.37552C11.1543 6.01489 10.3557 4.63031 10.4587 2.9817C10.5553 1.42969 11.2895 0.360666 12.4809 0.0579909C13.4597 -0.193165 14.4579 0.386425 14.9667 1.50697C15.1534 1.91912 15.3273 2.7241 15.3273 3.16202C15.3273 3.61281 15.1534 4.54015 15.0053 4.87503C14.8379 5.25498 14.3613 5.89897 14.1295 6.05997C13.6465 6.3884 12.9317 6.52364 12.4165 6.37552ZM13.4082 5.0811C13.9105 4.73979 14.2003 3.94124 14.1552 3.02678C14.1295 2.56311 14.0844 2.36991 13.9492 2.08656C13.6272 1.43613 13.3309 1.18497 12.8737 1.18497C12.6032 1.18497 12.5195 1.21717 12.2941 1.42325C12.1524 1.55205 11.9464 1.8354 11.8369 2.04792C11.663 2.38279 11.6308 2.53091 11.605 3.05254C11.5728 3.72873 11.7081 4.26324 12.0172 4.74623C12.3456 5.25498 12.9445 5.39666 13.4082 5.0811Z" fill="#45A173"/>
</svg>
